<svg xmlns="http://www.w3.org/2000/svg" width="29.25" height="29.25" viewBox="0 0 29.25 29.25"><defs><style>.a{fill:#999;}</style></defs><path class="a" d="M-2182-6784.375A14.623,14.623,0,0,1-2167.375-6799a14.624,14.624,0,0,1,14.625,14.625,14.623,14.623,0,0,1-14.625,14.625A14.622,14.622,0,0,1-2182-6784.375Zm6.37-8.253a11.621,11.621,0,0,0-3.418,8.253,11.621,11.621,0,0,0,3.418,8.255,11.622,11.622,0,0,0,8.255,3.418,11.619,11.619,0,0,0,8.254-3.418,11.621,11.621,0,0,0,3.418-8.255,11.621,11.621,0,0,0-3.418-8.253,11.619,11.619,0,0,0-8.254-3.418A11.622,11.622,0,0,0-2175.63-6792.629Zm8.255,10.3-5.267,5.267-2.046-2.045,5.267-5.268-5.267-5.266,2.046-2.046,5.267,5.266,5.266-5.266,2.046,2.046-5.266,5.266,5.266,5.268-2.046,2.045Z" transform="translate(2182 6799)"/></svg>