<svg xmlns="http://www.w3.org/2000/svg" width="31.505" height="29.081" viewBox="0 0 31.505 29.081"><defs><style>.a{fill:#4491e0;}</style></defs><path class="a" d="M26.216,4.5a9.319,9.319,0,0,0-7.089,3.325A9.319,9.319,0,0,0,12.039,4.5a8.565,8.565,0,0,0-8.664,8.717c0,6.021,5.354,10.853,13.465,18.3l2.287,2.06,2.287-2.06c8.111-7.452,13.465-12.284,13.465-18.3A8.565,8.565,0,0,0,26.216,4.5ZM20.1,29.439l-.318.3-.651.591-.651-.591-.318-.3A96.261,96.261,0,0,1,8.866,20.2c-2.121-2.628-3.06-4.779-3.06-6.983A6.3,6.3,0,0,1,7.6,8.726a6.163,6.163,0,0,1,4.438-1.8,6.946,6.946,0,0,1,5.233,2.461l1.855,2.2,1.855-2.2a6.92,6.92,0,0,1,5.233-2.461,6.194,6.194,0,0,1,4.446,1.8,6.312,6.312,0,0,1,1.795,4.491c0,2.2-.947,4.355-3.06,6.983A96.455,96.455,0,0,1,20.1,29.439Z" transform="translate(-3.375 -4.5)"/></svg>