<svg xmlns="http://www.w3.org/2000/svg" width="20.973" height="21" viewBox="0 0 20.973 21"><defs><style>.a{fill:#4491e0;}</style></defs><path class="a" d="M3.311,7.067A1.545,1.545,0,0,1,3.7,6.228L6.851,3.082q.367-.315.551.1L9.945,7.959a.687.687,0,0,1-.131.813L8.66,9.925a1.3,1.3,0,0,0-.367.813,4,4,0,0,0,.813,2.019,17.242,17.242,0,0,0,1.6,2.1l.813.838c.245.245.559.547.945.9a15.83,15.83,0,0,0,1.9,1.416,4.253,4.253,0,0,0,2.085.878,1.141,1.141,0,0,0,.839-.341l1.364-1.363a.576.576,0,0,1,.786-.1l4.589,2.7a.383.383,0,0,1,.21.275.335.335,0,0,1-.1.3l-3.146,3.146a1.541,1.541,0,0,1-.838.392,6.343,6.343,0,0,1-2.9-.354,13.112,13.112,0,0,1-2.988-1.429q-1.377-.891-2.556-1.808T9.816,18.735l-.682-.656q-.262-.262-.695-.721T6.93,15.55a26.333,26.333,0,0,1-1.862-2.635A15.372,15.372,0,0,1,3.7,9.991,6.219,6.219,0,0,1,3.311,7.067Z" transform="translate(-3.267 -2.947)"/></svg>