<svg xmlns="http://www.w3.org/2000/svg" width="21.401" height="19.754" viewBox="0 0 21.401 19.754"><defs><style>.a{fill:#d60707;}</style></defs><path class="a" d="M18.89,4.5a6.33,6.33,0,0,0-4.815,2.258A6.33,6.33,0,0,0,9.26,4.5a5.818,5.818,0,0,0-5.885,5.921c0,4.09,3.637,7.372,9.147,12.434l1.554,1.4,1.554-1.4c5.51-5.062,9.147-8.344,9.147-12.434A5.818,5.818,0,0,0,18.89,4.5ZM14.734,21.44l-.216.2-.442.4-.442-.4-.216-.2A65.388,65.388,0,0,1,7.1,15.164a7.548,7.548,0,0,1-2.078-4.743A4.279,4.279,0,0,1,6.246,7.371,4.187,4.187,0,0,1,9.26,6.146a4.718,4.718,0,0,1,3.555,1.672l1.26,1.5,1.26-1.5A4.7,4.7,0,0,1,18.89,6.146a4.207,4.207,0,0,1,3.02,1.224,4.288,4.288,0,0,1,1.219,3.051,7.587,7.587,0,0,1-2.078,4.743A65.52,65.52,0,0,1,14.734,21.44Z" transform="translate(-3.375 -4.5)"/></svg>