<svg xmlns="http://www.w3.org/2000/svg" width="19.755" height="12.347" viewBox="0 0 19.755 12.347"><defs><style>.a{fill:#4491e0;}</style></defs><path class="a" d="M12.448,7.712a11.063,11.063,0,0,0-9.877,6.173,10.988,10.988,0,0,0,19.754,0A11.063,11.063,0,0,0,12.448,7.712Zm4.87,3.274a9.393,9.393,0,0,1,2.883,2.9,9.393,9.393,0,0,1-2.883,2.9,9.052,9.052,0,0,1-9.74,0,9.393,9.393,0,0,1-2.883-2.9,9.393,9.393,0,0,1,2.883-2.9c.076-.048.152-.095.229-.141a4.939,4.939,0,1,0,9.283,0q.115.069.229.141Zm-4.87,1.047A1.852,1.852,0,1,1,10.6,10.181,1.852,1.852,0,0,1,12.448,12.033Z" transform="translate(-2.571 -7.712)"/></svg>