<svg xmlns="http://www.w3.org/2000/svg" width="25.909" height="24.699" viewBox="0 0 25.909 24.699"><defs><style>.a{fill:#4491e0;}</style></defs><g transform="translate(-2.002 -4.76)"><g transform="translate(2.002 4.76)"><path class="a" d="M2.485,22.027l12.092,5.942a.842.842,0,0,0,.76,0l12.092-5.942a.864.864,0,0,0,0-1.55L15.337,14.534a.864.864,0,0,0-.76,0L2.485,20.476a.864.864,0,0,0,0,1.55Zm12.472-5.748,10.131,4.984L14.957,26.242,4.825,21.262Z" transform="translate(-2.002 -10.263)"/><path class="a" d="M2.605,37.859,14.7,43.8a.864.864,0,0,0,.76,0l12.092-5.942a.864.864,0,0,0-.76-1.55l-11.712,5.77L3.365,36.321a.864.864,0,0,0-.76,1.537Z" transform="translate(-2.123 -22.64)"/><path class="a" d="M26.806,44.391,15.095,50.143,3.383,44.391a.864.864,0,0,0-.76,1.533l12.092,5.938a.864.864,0,0,0,.76,0l12.092-5.938a.864.864,0,0,0-.76-1.533Z" transform="translate(-2.14 -27.251)"/><path class="a" d="M45.624,8.75h1.4v1.4a.864.864,0,1,0,1.727,0V8.75h1.4a.864.864,0,0,0,0-1.727h-1.4v-1.4a.864.864,0,1,0-1.727,0v1.4h-1.4a.864.864,0,0,0,0,1.727Z" transform="translate(-26.295 -4.76)"/></g></g></svg>