<svg xmlns="http://www.w3.org/2000/svg" width="31.505" height="36" viewBox="0 0 31.505 36"><defs><style>.a{fill:#4491e0;}</style></defs><path class="a" d="M-1966.955,36a2.14,2.14,0,0,1-2.077-1.628l-2.424-9.733a2.879,2.879,0,0,0-2.8-2.191,2.879,2.879,0,0,0-2.8,2.191l-2.424,9.733A2.14,2.14,0,0,1-1981.547,36a2.133,2.133,0,0,1-2.086-1.667l-.548-2.387a73.772,73.772,0,0,1-1.472-9.866,14.451,14.451,0,0,0-2.552-7.548,9.183,9.183,0,0,1-1.511-7.765,9.1,9.1,0,0,1,6.469-6.589A5.514,5.514,0,0,1-1981.861,0a7.162,7.162,0,0,1,3.311.9l7.067,4.543a1.108,1.108,0,0,0,.6.18,1.139,1.139,0,0,0,.952-.517,1.117,1.117,0,0,0,.153-.847,1.118,1.118,0,0,0-.491-.707l-1.991-1.281c.068-.034.139-.066.207-.1a2.913,2.913,0,0,0,.531-.288A8.38,8.38,0,0,1-1966.646,0a5.546,5.546,0,0,1,1.395.178,9.1,9.1,0,0,1,6.469,6.589,9.172,9.172,0,0,1-1.514,7.765,14.455,14.455,0,0,0-2.552,7.548,73.926,73.926,0,0,1-1.472,9.866l-.548,2.387A2.133,2.133,0,0,1-1966.955,36ZM-1981,11.931v3.288h4.931v4.932h3.288V15.219h4.932V11.931h-4.932V7h-3.288v4.931Z" transform="translate(1990.002)"/></svg>