<svg xmlns="http://www.w3.org/2000/svg" width="21.001" height="21" viewBox="0 0 21.001 21"><defs><style>.a{fill:#4491e0;}</style></defs><path class="a" d="M-6728.769-4130a3.241,3.241,0,0,1-3.232-3.231v-11.307a3.241,3.241,0,0,1,3.232-3.231h5.653a.763.763,0,0,1,.808.808.763.763,0,0,1-.808.808h-5.653a1.621,1.621,0,0,0-1.616,1.616v11.307a1.621,1.621,0,0,0,1.616,1.616h11.307a1.621,1.621,0,0,0,1.616-1.616v-5.653a.764.764,0,0,1,.808-.808.764.764,0,0,1,.808.808v5.653a3.242,3.242,0,0,1-3.232,3.231Zm5.088-8.32a.88.88,0,0,1-.162-.807l1.292-3.8V-4143c.081-.08.081-.161.162-.241l5.978-5.978,1.534-1.535a.781.781,0,0,1,1.131,0l2.5,2.5a.78.78,0,0,1,0,1.131l-7.512,7.511c-.081.082-.161.163-.242.163h-.082l-3.8,1.292a.3.3,0,0,1-.242.081A.732.732,0,0,1-6723.68-4138.319Zm1.857-1.857.968-.324-.645-.645Zm1.131-2.5.726.727.647.646,4.846-4.846-1.373-1.373Zm5.978-5.977,1.373,1.373.4-.4-1.375-1.373Z" transform="translate(6732 4151)"/></svg>